M48
; DRILL file {KiCad 8.0.5} date 2025-07-15T13:21:51-0400
; FORMAT={-:-/ absolute / inch / decimal}
; #@! TF.CreationDate,2025-07-15T13:21:51-04:00
; #@! TF.GenerationSoftware,Kicad,Pcbnew,8.0.5
; #@! TF.FileFunction,NonPlated,1,2,NPTH
FMAT,2
INCH
; #@! TA.AperFunction,NonPlated,NPTH,ComponentDrill
T1C0.0669
; #@! TA.AperFunction,NonPlated,NPTH,ComponentDrill
T2C0.1575
%
G90
G05
T1
X4.872Y-2.5457
X4.872Y-3.1398
X4.872Y-3.7339
X5.272Y-2.5457
X5.272Y-3.1398
X5.272Y-3.7339
X5.4661Y-2.5457
X5.4661Y-3.1398
X5.4661Y-3.7339
X5.8661Y-2.5457
X5.8661Y-3.1398
X5.8661Y-3.7339
X6.0602Y-2.5457
X6.0602Y-3.1398
X6.0602Y-3.7339
X6.4602Y-2.5457
X6.4602Y-3.1398
X6.4602Y-3.7339
T2
X5.072Y-2.5457
X5.072Y-3.1398
X5.072Y-3.7339
X5.6661Y-2.5457
X5.6661Y-3.1398
X5.6661Y-3.7339
X6.2602Y-2.5457
X6.2602Y-3.1398
X6.2602Y-3.7339
M30
