%TF.GenerationSoftware,KiCad,Pcbnew,8.0.5*%
%TF.CreationDate,2025-07-15T13:21:23-04:00*%
%TF.ProjectId,macropad,6d616372-6f70-4616-942e-6b696361645f,rev?*%
%TF.SameCoordinates,Original*%
%TF.FileFunction,Legend,Top*%
%TF.FilePolarity,Positive*%
%FSLAX46Y46*%
G04 Gerber Fmt 4.6, Leading zero omitted, Abs format (unit mm)*
G04 Created by KiCad (PCBNEW 8.0.5) date 2025-07-15 13:21:23*
%MOMM*%
%LPD*%
G01*
G04 APERTURE LIST*
%ADD10C,0.093750*%
%ADD11C,0.150000*%
%ADD12C,0.120000*%
G04 APERTURE END LIST*
D10*
X165078320Y-110189265D02*
X165078320Y-109389265D01*
X165078320Y-109389265D02*
X165344986Y-109960693D01*
X165344986Y-109960693D02*
X165611653Y-109389265D01*
X165611653Y-109389265D02*
X165611653Y-110189265D01*
X166335463Y-110189265D02*
X166335463Y-109770217D01*
X166335463Y-109770217D02*
X166297368Y-109694027D01*
X166297368Y-109694027D02*
X166221177Y-109655931D01*
X166221177Y-109655931D02*
X166068796Y-109655931D01*
X166068796Y-109655931D02*
X165992606Y-109694027D01*
X166335463Y-110151170D02*
X166259272Y-110189265D01*
X166259272Y-110189265D02*
X166068796Y-110189265D01*
X166068796Y-110189265D02*
X165992606Y-110151170D01*
X165992606Y-110151170D02*
X165954510Y-110074979D01*
X165954510Y-110074979D02*
X165954510Y-109998789D01*
X165954510Y-109998789D02*
X165992606Y-109922598D01*
X165992606Y-109922598D02*
X166068796Y-109884503D01*
X166068796Y-109884503D02*
X166259272Y-109884503D01*
X166259272Y-109884503D02*
X166335463Y-109846408D01*
X166716416Y-110189265D02*
X166716416Y-109655931D01*
X166716416Y-109808312D02*
X166754511Y-109732122D01*
X166754511Y-109732122D02*
X166792606Y-109694027D01*
X166792606Y-109694027D02*
X166868797Y-109655931D01*
X166868797Y-109655931D02*
X166944987Y-109655931D01*
X167135463Y-109655931D02*
X167325939Y-110189265D01*
X167516416Y-109655931D02*
X167325939Y-110189265D01*
X167325939Y-110189265D02*
X167249749Y-110379741D01*
X167249749Y-110379741D02*
X167211654Y-110417836D01*
X167211654Y-110417836D02*
X167135463Y-110455931D01*
X168392606Y-110151170D02*
X168506892Y-110189265D01*
X168506892Y-110189265D02*
X168697368Y-110189265D01*
X168697368Y-110189265D02*
X168773559Y-110151170D01*
X168773559Y-110151170D02*
X168811654Y-110113074D01*
X168811654Y-110113074D02*
X168849749Y-110036884D01*
X168849749Y-110036884D02*
X168849749Y-109960693D01*
X168849749Y-109960693D02*
X168811654Y-109884503D01*
X168811654Y-109884503D02*
X168773559Y-109846408D01*
X168773559Y-109846408D02*
X168697368Y-109808312D01*
X168697368Y-109808312D02*
X168544987Y-109770217D01*
X168544987Y-109770217D02*
X168468797Y-109732122D01*
X168468797Y-109732122D02*
X168430702Y-109694027D01*
X168430702Y-109694027D02*
X168392606Y-109617836D01*
X168392606Y-109617836D02*
X168392606Y-109541646D01*
X168392606Y-109541646D02*
X168430702Y-109465455D01*
X168430702Y-109465455D02*
X168468797Y-109427360D01*
X168468797Y-109427360D02*
X168544987Y-109389265D01*
X168544987Y-109389265D02*
X168735464Y-109389265D01*
X168735464Y-109389265D02*
X168849749Y-109427360D01*
X169535464Y-110151170D02*
X169459273Y-110189265D01*
X169459273Y-110189265D02*
X169306892Y-110189265D01*
X169306892Y-110189265D02*
X169230702Y-110151170D01*
X169230702Y-110151170D02*
X169192607Y-110113074D01*
X169192607Y-110113074D02*
X169154511Y-110036884D01*
X169154511Y-110036884D02*
X169154511Y-109808312D01*
X169154511Y-109808312D02*
X169192607Y-109732122D01*
X169192607Y-109732122D02*
X169230702Y-109694027D01*
X169230702Y-109694027D02*
X169306892Y-109655931D01*
X169306892Y-109655931D02*
X169459273Y-109655931D01*
X169459273Y-109655931D02*
X169535464Y-109694027D01*
X169878321Y-110189265D02*
X169878321Y-109389265D01*
X170221178Y-110189265D02*
X170221178Y-109770217D01*
X170221178Y-109770217D02*
X170183083Y-109694027D01*
X170183083Y-109694027D02*
X170106892Y-109655931D01*
X170106892Y-109655931D02*
X169992606Y-109655931D01*
X169992606Y-109655931D02*
X169916416Y-109694027D01*
X169916416Y-109694027D02*
X169878321Y-109732122D01*
X170525940Y-109655931D02*
X170678321Y-110189265D01*
X170678321Y-110189265D02*
X170830702Y-109808312D01*
X170830702Y-109808312D02*
X170983083Y-110189265D01*
X170983083Y-110189265D02*
X171135464Y-109655931D01*
X171744988Y-110151170D02*
X171668797Y-110189265D01*
X171668797Y-110189265D02*
X171516416Y-110189265D01*
X171516416Y-110189265D02*
X171440226Y-110151170D01*
X171440226Y-110151170D02*
X171402130Y-110074979D01*
X171402130Y-110074979D02*
X171402130Y-109770217D01*
X171402130Y-109770217D02*
X171440226Y-109694027D01*
X171440226Y-109694027D02*
X171516416Y-109655931D01*
X171516416Y-109655931D02*
X171668797Y-109655931D01*
X171668797Y-109655931D02*
X171744988Y-109694027D01*
X171744988Y-109694027D02*
X171783083Y-109770217D01*
X171783083Y-109770217D02*
X171783083Y-109846408D01*
X171783083Y-109846408D02*
X171402130Y-109922598D01*
X172468797Y-110189265D02*
X172468797Y-109389265D01*
X172468797Y-110151170D02*
X172392606Y-110189265D01*
X172392606Y-110189265D02*
X172240225Y-110189265D01*
X172240225Y-110189265D02*
X172164035Y-110151170D01*
X172164035Y-110151170D02*
X172125940Y-110113074D01*
X172125940Y-110113074D02*
X172087844Y-110036884D01*
X172087844Y-110036884D02*
X172087844Y-109808312D01*
X172087844Y-109808312D02*
X172125940Y-109732122D01*
X172125940Y-109732122D02*
X172164035Y-109694027D01*
X172164035Y-109694027D02*
X172240225Y-109655931D01*
X172240225Y-109655931D02*
X172392606Y-109655931D01*
X172392606Y-109655931D02*
X172468797Y-109694027D01*
X173192607Y-110189265D02*
X173192607Y-109770217D01*
X173192607Y-109770217D02*
X173154512Y-109694027D01*
X173154512Y-109694027D02*
X173078321Y-109655931D01*
X173078321Y-109655931D02*
X172925940Y-109655931D01*
X172925940Y-109655931D02*
X172849750Y-109694027D01*
X173192607Y-110151170D02*
X173116416Y-110189265D01*
X173116416Y-110189265D02*
X172925940Y-110189265D01*
X172925940Y-110189265D02*
X172849750Y-110151170D01*
X172849750Y-110151170D02*
X172811654Y-110074979D01*
X172811654Y-110074979D02*
X172811654Y-109998789D01*
X172811654Y-109998789D02*
X172849750Y-109922598D01*
X172849750Y-109922598D02*
X172925940Y-109884503D01*
X172925940Y-109884503D02*
X173116416Y-109884503D01*
X173116416Y-109884503D02*
X173192607Y-109846408D01*
X173459274Y-109655931D02*
X173764036Y-109655931D01*
X173573560Y-109389265D02*
X173573560Y-110074979D01*
X173573560Y-110074979D02*
X173611655Y-110151170D01*
X173611655Y-110151170D02*
X173687845Y-110189265D01*
X173687845Y-110189265D02*
X173764036Y-110189265D01*
X173992607Y-110151170D02*
X174068798Y-110189265D01*
X174068798Y-110189265D02*
X174221179Y-110189265D01*
X174221179Y-110189265D02*
X174297369Y-110151170D01*
X174297369Y-110151170D02*
X174335465Y-110074979D01*
X174335465Y-110074979D02*
X174335465Y-110036884D01*
X174335465Y-110036884D02*
X174297369Y-109960693D01*
X174297369Y-109960693D02*
X174221179Y-109922598D01*
X174221179Y-109922598D02*
X174106893Y-109922598D01*
X174106893Y-109922598D02*
X174030703Y-109884503D01*
X174030703Y-109884503D02*
X173992607Y-109808312D01*
X173992607Y-109808312D02*
X173992607Y-109770217D01*
X173992607Y-109770217D02*
X174030703Y-109694027D01*
X174030703Y-109694027D02*
X174106893Y-109655931D01*
X174106893Y-109655931D02*
X174221179Y-109655931D01*
X174221179Y-109655931D02*
X174297369Y-109694027D01*
X175021179Y-110151170D02*
X174944988Y-110189265D01*
X174944988Y-110189265D02*
X174792607Y-110189265D01*
X174792607Y-110189265D02*
X174716417Y-110151170D01*
X174716417Y-110151170D02*
X174678322Y-110113074D01*
X174678322Y-110113074D02*
X174640226Y-110036884D01*
X174640226Y-110036884D02*
X174640226Y-109808312D01*
X174640226Y-109808312D02*
X174678322Y-109732122D01*
X174678322Y-109732122D02*
X174716417Y-109694027D01*
X174716417Y-109694027D02*
X174792607Y-109655931D01*
X174792607Y-109655931D02*
X174944988Y-109655931D01*
X174944988Y-109655931D02*
X175021179Y-109694027D01*
X175364036Y-110189265D02*
X175364036Y-109389265D01*
X175706893Y-110189265D02*
X175706893Y-109770217D01*
X175706893Y-109770217D02*
X175668798Y-109694027D01*
X175668798Y-109694027D02*
X175592607Y-109655931D01*
X175592607Y-109655931D02*
X175478321Y-109655931D01*
X175478321Y-109655931D02*
X175402131Y-109694027D01*
X175402131Y-109694027D02*
X175364036Y-109732122D01*
X176392608Y-110151170D02*
X176316417Y-110189265D01*
X176316417Y-110189265D02*
X176164036Y-110189265D01*
X176164036Y-110189265D02*
X176087846Y-110151170D01*
X176087846Y-110151170D02*
X176049750Y-110074979D01*
X176049750Y-110074979D02*
X176049750Y-109770217D01*
X176049750Y-109770217D02*
X176087846Y-109694027D01*
X176087846Y-109694027D02*
X176164036Y-109655931D01*
X176164036Y-109655931D02*
X176316417Y-109655931D01*
X176316417Y-109655931D02*
X176392608Y-109694027D01*
X176392608Y-109694027D02*
X176430703Y-109770217D01*
X176430703Y-109770217D02*
X176430703Y-109846408D01*
X176430703Y-109846408D02*
X176049750Y-109922598D01*
X176773560Y-109655931D02*
X176773560Y-110189265D01*
X176773560Y-109732122D02*
X176811655Y-109694027D01*
X176811655Y-109694027D02*
X176887845Y-109655931D01*
X176887845Y-109655931D02*
X177002131Y-109655931D01*
X177002131Y-109655931D02*
X177078322Y-109694027D01*
X177078322Y-109694027D02*
X177116417Y-109770217D01*
X177116417Y-109770217D02*
X177116417Y-110189265D01*
X177497370Y-110189265D02*
X177497370Y-109389265D01*
X177573560Y-109884503D02*
X177802132Y-110189265D01*
X177802132Y-109655931D02*
X177497370Y-109960693D01*
X178259274Y-110189265D02*
X178183084Y-110151170D01*
X178183084Y-110151170D02*
X178144989Y-110113074D01*
X178144989Y-110113074D02*
X178106893Y-110036884D01*
X178106893Y-110036884D02*
X178106893Y-109808312D01*
X178106893Y-109808312D02*
X178144989Y-109732122D01*
X178144989Y-109732122D02*
X178183084Y-109694027D01*
X178183084Y-109694027D02*
X178259274Y-109655931D01*
X178259274Y-109655931D02*
X178373560Y-109655931D01*
X178373560Y-109655931D02*
X178449751Y-109694027D01*
X178449751Y-109694027D02*
X178487846Y-109732122D01*
X178487846Y-109732122D02*
X178525941Y-109808312D01*
X178525941Y-109808312D02*
X178525941Y-110036884D01*
X178525941Y-110036884D02*
X178487846Y-110113074D01*
X178487846Y-110113074D02*
X178449751Y-110151170D01*
X178449751Y-110151170D02*
X178373560Y-110189265D01*
X178373560Y-110189265D02*
X178259274Y-110189265D01*
X170373558Y-111439125D02*
X170487844Y-111477220D01*
X170487844Y-111477220D02*
X170678320Y-111477220D01*
X170678320Y-111477220D02*
X170754511Y-111439125D01*
X170754511Y-111439125D02*
X170792606Y-111401029D01*
X170792606Y-111401029D02*
X170830701Y-111324839D01*
X170830701Y-111324839D02*
X170830701Y-111248648D01*
X170830701Y-111248648D02*
X170792606Y-111172458D01*
X170792606Y-111172458D02*
X170754511Y-111134363D01*
X170754511Y-111134363D02*
X170678320Y-111096267D01*
X170678320Y-111096267D02*
X170525939Y-111058172D01*
X170525939Y-111058172D02*
X170449749Y-111020077D01*
X170449749Y-111020077D02*
X170411654Y-110981982D01*
X170411654Y-110981982D02*
X170373558Y-110905791D01*
X170373558Y-110905791D02*
X170373558Y-110829601D01*
X170373558Y-110829601D02*
X170411654Y-110753410D01*
X170411654Y-110753410D02*
X170449749Y-110715315D01*
X170449749Y-110715315D02*
X170525939Y-110677220D01*
X170525939Y-110677220D02*
X170716416Y-110677220D01*
X170716416Y-110677220D02*
X170830701Y-110715315D01*
X171516416Y-110943886D02*
X171516416Y-111477220D01*
X171173559Y-110943886D02*
X171173559Y-111362934D01*
X171173559Y-111362934D02*
X171211654Y-111439125D01*
X171211654Y-111439125D02*
X171287844Y-111477220D01*
X171287844Y-111477220D02*
X171402130Y-111477220D01*
X171402130Y-111477220D02*
X171478321Y-111439125D01*
X171478321Y-111439125D02*
X171516416Y-111401029D01*
X171897369Y-111477220D02*
X171897369Y-110943886D01*
X171897369Y-111020077D02*
X171935464Y-110981982D01*
X171935464Y-110981982D02*
X172011654Y-110943886D01*
X172011654Y-110943886D02*
X172125940Y-110943886D01*
X172125940Y-110943886D02*
X172202131Y-110981982D01*
X172202131Y-110981982D02*
X172240226Y-111058172D01*
X172240226Y-111058172D02*
X172240226Y-111477220D01*
X172240226Y-111058172D02*
X172278321Y-110981982D01*
X172278321Y-110981982D02*
X172354512Y-110943886D01*
X172354512Y-110943886D02*
X172468797Y-110943886D01*
X172468797Y-110943886D02*
X172544988Y-110981982D01*
X172544988Y-110981982D02*
X172583083Y-111058172D01*
X172583083Y-111058172D02*
X172583083Y-111477220D01*
X172964036Y-111477220D02*
X172964036Y-110943886D01*
X172964036Y-111020077D02*
X173002131Y-110981982D01*
X173002131Y-110981982D02*
X173078321Y-110943886D01*
X173078321Y-110943886D02*
X173192607Y-110943886D01*
X173192607Y-110943886D02*
X173268798Y-110981982D01*
X173268798Y-110981982D02*
X173306893Y-111058172D01*
X173306893Y-111058172D02*
X173306893Y-111477220D01*
X173306893Y-111058172D02*
X173344988Y-110981982D01*
X173344988Y-110981982D02*
X173421179Y-110943886D01*
X173421179Y-110943886D02*
X173535464Y-110943886D01*
X173535464Y-110943886D02*
X173611655Y-110981982D01*
X173611655Y-110981982D02*
X173649750Y-111058172D01*
X173649750Y-111058172D02*
X173649750Y-111477220D01*
X174335465Y-111439125D02*
X174259274Y-111477220D01*
X174259274Y-111477220D02*
X174106893Y-111477220D01*
X174106893Y-111477220D02*
X174030703Y-111439125D01*
X174030703Y-111439125D02*
X173992607Y-111362934D01*
X173992607Y-111362934D02*
X173992607Y-111058172D01*
X173992607Y-111058172D02*
X174030703Y-110981982D01*
X174030703Y-110981982D02*
X174106893Y-110943886D01*
X174106893Y-110943886D02*
X174259274Y-110943886D01*
X174259274Y-110943886D02*
X174335465Y-110981982D01*
X174335465Y-110981982D02*
X174373560Y-111058172D01*
X174373560Y-111058172D02*
X174373560Y-111134363D01*
X174373560Y-111134363D02*
X173992607Y-111210553D01*
X174716417Y-111477220D02*
X174716417Y-110943886D01*
X174716417Y-111096267D02*
X174754512Y-111020077D01*
X174754512Y-111020077D02*
X174792607Y-110981982D01*
X174792607Y-110981982D02*
X174868798Y-110943886D01*
X174868798Y-110943886D02*
X174944988Y-110943886D01*
X175783083Y-110753410D02*
X175821179Y-110715315D01*
X175821179Y-110715315D02*
X175897369Y-110677220D01*
X175897369Y-110677220D02*
X176087845Y-110677220D01*
X176087845Y-110677220D02*
X176164036Y-110715315D01*
X176164036Y-110715315D02*
X176202131Y-110753410D01*
X176202131Y-110753410D02*
X176240226Y-110829601D01*
X176240226Y-110829601D02*
X176240226Y-110905791D01*
X176240226Y-110905791D02*
X176202131Y-111020077D01*
X176202131Y-111020077D02*
X175744988Y-111477220D01*
X175744988Y-111477220D02*
X176240226Y-111477220D01*
X176735465Y-110677220D02*
X176811655Y-110677220D01*
X176811655Y-110677220D02*
X176887846Y-110715315D01*
X176887846Y-110715315D02*
X176925941Y-110753410D01*
X176925941Y-110753410D02*
X176964036Y-110829601D01*
X176964036Y-110829601D02*
X177002131Y-110981982D01*
X177002131Y-110981982D02*
X177002131Y-111172458D01*
X177002131Y-111172458D02*
X176964036Y-111324839D01*
X176964036Y-111324839D02*
X176925941Y-111401029D01*
X176925941Y-111401029D02*
X176887846Y-111439125D01*
X176887846Y-111439125D02*
X176811655Y-111477220D01*
X176811655Y-111477220D02*
X176735465Y-111477220D01*
X176735465Y-111477220D02*
X176659274Y-111439125D01*
X176659274Y-111439125D02*
X176621179Y-111401029D01*
X176621179Y-111401029D02*
X176583084Y-111324839D01*
X176583084Y-111324839D02*
X176544988Y-111172458D01*
X176544988Y-111172458D02*
X176544988Y-110981982D01*
X176544988Y-110981982D02*
X176583084Y-110829601D01*
X176583084Y-110829601D02*
X176621179Y-110753410D01*
X176621179Y-110753410D02*
X176659274Y-110715315D01*
X176659274Y-110715315D02*
X176735465Y-110677220D01*
X177306893Y-110753410D02*
X177344989Y-110715315D01*
X177344989Y-110715315D02*
X177421179Y-110677220D01*
X177421179Y-110677220D02*
X177611655Y-110677220D01*
X177611655Y-110677220D02*
X177687846Y-110715315D01*
X177687846Y-110715315D02*
X177725941Y-110753410D01*
X177725941Y-110753410D02*
X177764036Y-110829601D01*
X177764036Y-110829601D02*
X177764036Y-110905791D01*
X177764036Y-110905791D02*
X177725941Y-111020077D01*
X177725941Y-111020077D02*
X177268798Y-111477220D01*
X177268798Y-111477220D02*
X177764036Y-111477220D01*
X178487846Y-110677220D02*
X178106894Y-110677220D01*
X178106894Y-110677220D02*
X178068798Y-111058172D01*
X178068798Y-111058172D02*
X178106894Y-111020077D01*
X178106894Y-111020077D02*
X178183084Y-110981982D01*
X178183084Y-110981982D02*
X178373560Y-110981982D01*
X178373560Y-110981982D02*
X178449751Y-111020077D01*
X178449751Y-111020077D02*
X178487846Y-111058172D01*
X178487846Y-111058172D02*
X178525941Y-111134363D01*
X178525941Y-111134363D02*
X178525941Y-111324839D01*
X178525941Y-111324839D02*
X178487846Y-111401029D01*
X178487846Y-111401029D02*
X178449751Y-111439125D01*
X178449751Y-111439125D02*
X178373560Y-111477220D01*
X178373560Y-111477220D02*
X178183084Y-111477220D01*
X178183084Y-111477220D02*
X178106894Y-111439125D01*
X178106894Y-111439125D02*
X178068798Y-111401029D01*
D11*
X143331905Y-103064819D02*
X143331905Y-102064819D01*
X143903333Y-103064819D02*
X143474762Y-102493390D01*
X143903333Y-102064819D02*
X143331905Y-102636247D01*
X144760476Y-102064819D02*
X144570000Y-102064819D01*
X144570000Y-102064819D02*
X144474762Y-102112438D01*
X144474762Y-102112438D02*
X144427143Y-102160057D01*
X144427143Y-102160057D02*
X144331905Y-102302914D01*
X144331905Y-102302914D02*
X144284286Y-102493390D01*
X144284286Y-102493390D02*
X144284286Y-102874342D01*
X144284286Y-102874342D02*
X144331905Y-102969580D01*
X144331905Y-102969580D02*
X144379524Y-103017200D01*
X144379524Y-103017200D02*
X144474762Y-103064819D01*
X144474762Y-103064819D02*
X144665238Y-103064819D01*
X144665238Y-103064819D02*
X144760476Y-103017200D01*
X144760476Y-103017200D02*
X144808095Y-102969580D01*
X144808095Y-102969580D02*
X144855714Y-102874342D01*
X144855714Y-102874342D02*
X144855714Y-102636247D01*
X144855714Y-102636247D02*
X144808095Y-102541009D01*
X144808095Y-102541009D02*
X144760476Y-102493390D01*
X144760476Y-102493390D02*
X144665238Y-102445771D01*
X144665238Y-102445771D02*
X144474762Y-102445771D01*
X144474762Y-102445771D02*
X144379524Y-102493390D01*
X144379524Y-102493390D02*
X144331905Y-102541009D01*
X144331905Y-102541009D02*
X144284286Y-102636247D01*
X120051905Y-76214819D02*
X120051905Y-75214819D01*
X120623333Y-76214819D02*
X120194762Y-75643390D01*
X120623333Y-75214819D02*
X120051905Y-75786247D01*
X121004286Y-75310057D02*
X121051905Y-75262438D01*
X121051905Y-75262438D02*
X121147143Y-75214819D01*
X121147143Y-75214819D02*
X121385238Y-75214819D01*
X121385238Y-75214819D02*
X121480476Y-75262438D01*
X121480476Y-75262438D02*
X121528095Y-75310057D01*
X121528095Y-75310057D02*
X121575714Y-75405295D01*
X121575714Y-75405295D02*
X121575714Y-75500533D01*
X121575714Y-75500533D02*
X121528095Y-75643390D01*
X121528095Y-75643390D02*
X120956667Y-76214819D01*
X120956667Y-76214819D02*
X121575714Y-76214819D01*
X173131905Y-89414819D02*
X173131905Y-88414819D01*
X173131905Y-88414819D02*
X173370000Y-88414819D01*
X173370000Y-88414819D02*
X173512857Y-88462438D01*
X173512857Y-88462438D02*
X173608095Y-88557676D01*
X173608095Y-88557676D02*
X173655714Y-88652914D01*
X173655714Y-88652914D02*
X173703333Y-88843390D01*
X173703333Y-88843390D02*
X173703333Y-88986247D01*
X173703333Y-88986247D02*
X173655714Y-89176723D01*
X173655714Y-89176723D02*
X173608095Y-89271961D01*
X173608095Y-89271961D02*
X173512857Y-89367200D01*
X173512857Y-89367200D02*
X173370000Y-89414819D01*
X173370000Y-89414819D02*
X173131905Y-89414819D01*
X174274762Y-88843390D02*
X174179524Y-88795771D01*
X174179524Y-88795771D02*
X174131905Y-88748152D01*
X174131905Y-88748152D02*
X174084286Y-88652914D01*
X174084286Y-88652914D02*
X174084286Y-88605295D01*
X174084286Y-88605295D02*
X174131905Y-88510057D01*
X174131905Y-88510057D02*
X174179524Y-88462438D01*
X174179524Y-88462438D02*
X174274762Y-88414819D01*
X174274762Y-88414819D02*
X174465238Y-88414819D01*
X174465238Y-88414819D02*
X174560476Y-88462438D01*
X174560476Y-88462438D02*
X174608095Y-88510057D01*
X174608095Y-88510057D02*
X174655714Y-88605295D01*
X174655714Y-88605295D02*
X174655714Y-88652914D01*
X174655714Y-88652914D02*
X174608095Y-88748152D01*
X174608095Y-88748152D02*
X174560476Y-88795771D01*
X174560476Y-88795771D02*
X174465238Y-88843390D01*
X174465238Y-88843390D02*
X174274762Y-88843390D01*
X174274762Y-88843390D02*
X174179524Y-88891009D01*
X174179524Y-88891009D02*
X174131905Y-88938628D01*
X174131905Y-88938628D02*
X174084286Y-89033866D01*
X174084286Y-89033866D02*
X174084286Y-89224342D01*
X174084286Y-89224342D02*
X174131905Y-89319580D01*
X174131905Y-89319580D02*
X174179524Y-89367200D01*
X174179524Y-89367200D02*
X174274762Y-89414819D01*
X174274762Y-89414819D02*
X174465238Y-89414819D01*
X174465238Y-89414819D02*
X174560476Y-89367200D01*
X174560476Y-89367200D02*
X174608095Y-89319580D01*
X174608095Y-89319580D02*
X174655714Y-89224342D01*
X174655714Y-89224342D02*
X174655714Y-89033866D01*
X174655714Y-89033866D02*
X174608095Y-88938628D01*
X174608095Y-88938628D02*
X174560476Y-88891009D01*
X174560476Y-88891009D02*
X174465238Y-88843390D01*
X175001905Y-91779104D02*
X175478095Y-91779104D01*
X174906667Y-92064819D02*
X175240000Y-91064819D01*
X175240000Y-91064819D02*
X175573333Y-92064819D01*
X120001905Y-93384819D02*
X120001905Y-92384819D01*
X120573333Y-93384819D02*
X120144762Y-92813390D01*
X120573333Y-92384819D02*
X120001905Y-92956247D01*
X120906667Y-92384819D02*
X121525714Y-92384819D01*
X121525714Y-92384819D02*
X121192381Y-92765771D01*
X121192381Y-92765771D02*
X121335238Y-92765771D01*
X121335238Y-92765771D02*
X121430476Y-92813390D01*
X121430476Y-92813390D02*
X121478095Y-92861009D01*
X121478095Y-92861009D02*
X121525714Y-92956247D01*
X121525714Y-92956247D02*
X121525714Y-93194342D01*
X121525714Y-93194342D02*
X121478095Y-93289580D01*
X121478095Y-93289580D02*
X121430476Y-93337200D01*
X121430476Y-93337200D02*
X121335238Y-93384819D01*
X121335238Y-93384819D02*
X121049524Y-93384819D01*
X121049524Y-93384819D02*
X120954286Y-93337200D01*
X120954286Y-93337200D02*
X120906667Y-93289580D01*
X172971905Y-78084819D02*
X172971905Y-77084819D01*
X172971905Y-77084819D02*
X173210000Y-77084819D01*
X173210000Y-77084819D02*
X173352857Y-77132438D01*
X173352857Y-77132438D02*
X173448095Y-77227676D01*
X173448095Y-77227676D02*
X173495714Y-77322914D01*
X173495714Y-77322914D02*
X173543333Y-77513390D01*
X173543333Y-77513390D02*
X173543333Y-77656247D01*
X173543333Y-77656247D02*
X173495714Y-77846723D01*
X173495714Y-77846723D02*
X173448095Y-77941961D01*
X173448095Y-77941961D02*
X173352857Y-78037200D01*
X173352857Y-78037200D02*
X173210000Y-78084819D01*
X173210000Y-78084819D02*
X172971905Y-78084819D01*
X174448095Y-77084819D02*
X173971905Y-77084819D01*
X173971905Y-77084819D02*
X173924286Y-77561009D01*
X173924286Y-77561009D02*
X173971905Y-77513390D01*
X173971905Y-77513390D02*
X174067143Y-77465771D01*
X174067143Y-77465771D02*
X174305238Y-77465771D01*
X174305238Y-77465771D02*
X174400476Y-77513390D01*
X174400476Y-77513390D02*
X174448095Y-77561009D01*
X174448095Y-77561009D02*
X174495714Y-77656247D01*
X174495714Y-77656247D02*
X174495714Y-77894342D01*
X174495714Y-77894342D02*
X174448095Y-77989580D01*
X174448095Y-77989580D02*
X174400476Y-78037200D01*
X174400476Y-78037200D02*
X174305238Y-78084819D01*
X174305238Y-78084819D02*
X174067143Y-78084819D01*
X174067143Y-78084819D02*
X173971905Y-78037200D01*
X173971905Y-78037200D02*
X173924286Y-77989580D01*
X174701905Y-80359104D02*
X175178095Y-80359104D01*
X174606667Y-80644819D02*
X174940000Y-79644819D01*
X174940000Y-79644819D02*
X175273333Y-80644819D01*
X172931905Y-70554819D02*
X172931905Y-69554819D01*
X172931905Y-69554819D02*
X173170000Y-69554819D01*
X173170000Y-69554819D02*
X173312857Y-69602438D01*
X173312857Y-69602438D02*
X173408095Y-69697676D01*
X173408095Y-69697676D02*
X173455714Y-69792914D01*
X173455714Y-69792914D02*
X173503333Y-69983390D01*
X173503333Y-69983390D02*
X173503333Y-70126247D01*
X173503333Y-70126247D02*
X173455714Y-70316723D01*
X173455714Y-70316723D02*
X173408095Y-70411961D01*
X173408095Y-70411961D02*
X173312857Y-70507200D01*
X173312857Y-70507200D02*
X173170000Y-70554819D01*
X173170000Y-70554819D02*
X172931905Y-70554819D01*
X173836667Y-69554819D02*
X174455714Y-69554819D01*
X174455714Y-69554819D02*
X174122381Y-69935771D01*
X174122381Y-69935771D02*
X174265238Y-69935771D01*
X174265238Y-69935771D02*
X174360476Y-69983390D01*
X174360476Y-69983390D02*
X174408095Y-70031009D01*
X174408095Y-70031009D02*
X174455714Y-70126247D01*
X174455714Y-70126247D02*
X174455714Y-70364342D01*
X174455714Y-70364342D02*
X174408095Y-70459580D01*
X174408095Y-70459580D02*
X174360476Y-70507200D01*
X174360476Y-70507200D02*
X174265238Y-70554819D01*
X174265238Y-70554819D02*
X173979524Y-70554819D01*
X173979524Y-70554819D02*
X173884286Y-70507200D01*
X173884286Y-70507200D02*
X173836667Y-70459580D01*
X174561905Y-72799104D02*
X175038095Y-72799104D01*
X174466667Y-73084819D02*
X174800000Y-72084819D01*
X174800000Y-72084819D02*
X175133333Y-73084819D01*
X158271905Y-57240819D02*
X158271905Y-56240819D01*
X158843333Y-57240819D02*
X158414762Y-56669390D01*
X158843333Y-56240819D02*
X158271905Y-56812247D01*
X159176667Y-56240819D02*
X159843333Y-56240819D01*
X159843333Y-56240819D02*
X159414762Y-57240819D01*
X173081905Y-85634819D02*
X173081905Y-84634819D01*
X173081905Y-84634819D02*
X173320000Y-84634819D01*
X173320000Y-84634819D02*
X173462857Y-84682438D01*
X173462857Y-84682438D02*
X173558095Y-84777676D01*
X173558095Y-84777676D02*
X173605714Y-84872914D01*
X173605714Y-84872914D02*
X173653333Y-85063390D01*
X173653333Y-85063390D02*
X173653333Y-85206247D01*
X173653333Y-85206247D02*
X173605714Y-85396723D01*
X173605714Y-85396723D02*
X173558095Y-85491961D01*
X173558095Y-85491961D02*
X173462857Y-85587200D01*
X173462857Y-85587200D02*
X173320000Y-85634819D01*
X173320000Y-85634819D02*
X173081905Y-85634819D01*
X173986667Y-84634819D02*
X174653333Y-84634819D01*
X174653333Y-84634819D02*
X174224762Y-85634819D01*
X174657591Y-88001846D02*
X175133781Y-88001846D01*
X174562353Y-88287561D02*
X174895686Y-87287561D01*
X174895686Y-87287561D02*
X175229019Y-88287561D01*
X173151905Y-93194819D02*
X173151905Y-92194819D01*
X173151905Y-92194819D02*
X173390000Y-92194819D01*
X173390000Y-92194819D02*
X173532857Y-92242438D01*
X173532857Y-92242438D02*
X173628095Y-92337676D01*
X173628095Y-92337676D02*
X173675714Y-92432914D01*
X173675714Y-92432914D02*
X173723333Y-92623390D01*
X173723333Y-92623390D02*
X173723333Y-92766247D01*
X173723333Y-92766247D02*
X173675714Y-92956723D01*
X173675714Y-92956723D02*
X173628095Y-93051961D01*
X173628095Y-93051961D02*
X173532857Y-93147200D01*
X173532857Y-93147200D02*
X173390000Y-93194819D01*
X173390000Y-93194819D02*
X173151905Y-93194819D01*
X174199524Y-93194819D02*
X174390000Y-93194819D01*
X174390000Y-93194819D02*
X174485238Y-93147200D01*
X174485238Y-93147200D02*
X174532857Y-93099580D01*
X174532857Y-93099580D02*
X174628095Y-92956723D01*
X174628095Y-92956723D02*
X174675714Y-92766247D01*
X174675714Y-92766247D02*
X174675714Y-92385295D01*
X174675714Y-92385295D02*
X174628095Y-92290057D01*
X174628095Y-92290057D02*
X174580476Y-92242438D01*
X174580476Y-92242438D02*
X174485238Y-92194819D01*
X174485238Y-92194819D02*
X174294762Y-92194819D01*
X174294762Y-92194819D02*
X174199524Y-92242438D01*
X174199524Y-92242438D02*
X174151905Y-92290057D01*
X174151905Y-92290057D02*
X174104286Y-92385295D01*
X174104286Y-92385295D02*
X174104286Y-92623390D01*
X174104286Y-92623390D02*
X174151905Y-92718628D01*
X174151905Y-92718628D02*
X174199524Y-92766247D01*
X174199524Y-92766247D02*
X174294762Y-92813866D01*
X174294762Y-92813866D02*
X174485238Y-92813866D01*
X174485238Y-92813866D02*
X174580476Y-92766247D01*
X174580476Y-92766247D02*
X174628095Y-92718628D01*
X174628095Y-92718628D02*
X174675714Y-92623390D01*
X174657591Y-95547330D02*
X175133781Y-95547330D01*
X174562353Y-95833045D02*
X174895686Y-94833045D01*
X174895686Y-94833045D02*
X175229019Y-95833045D01*
X166271905Y-91374819D02*
X166271905Y-90374819D01*
X166843333Y-91374819D02*
X166414762Y-90803390D01*
X166843333Y-90374819D02*
X166271905Y-90946247D01*
X167319524Y-91374819D02*
X167510000Y-91374819D01*
X167510000Y-91374819D02*
X167605238Y-91327200D01*
X167605238Y-91327200D02*
X167652857Y-91279580D01*
X167652857Y-91279580D02*
X167748095Y-91136723D01*
X167748095Y-91136723D02*
X167795714Y-90946247D01*
X167795714Y-90946247D02*
X167795714Y-90565295D01*
X167795714Y-90565295D02*
X167748095Y-90470057D01*
X167748095Y-90470057D02*
X167700476Y-90422438D01*
X167700476Y-90422438D02*
X167605238Y-90374819D01*
X167605238Y-90374819D02*
X167414762Y-90374819D01*
X167414762Y-90374819D02*
X167319524Y-90422438D01*
X167319524Y-90422438D02*
X167271905Y-90470057D01*
X167271905Y-90470057D02*
X167224286Y-90565295D01*
X167224286Y-90565295D02*
X167224286Y-90803390D01*
X167224286Y-90803390D02*
X167271905Y-90898628D01*
X167271905Y-90898628D02*
X167319524Y-90946247D01*
X167319524Y-90946247D02*
X167414762Y-90993866D01*
X167414762Y-90993866D02*
X167605238Y-90993866D01*
X167605238Y-90993866D02*
X167700476Y-90946247D01*
X167700476Y-90946247D02*
X167748095Y-90898628D01*
X167748095Y-90898628D02*
X167795714Y-90803390D01*
X173117591Y-62524738D02*
X173117591Y-61524738D01*
X173117591Y-61524738D02*
X173355686Y-61524738D01*
X173355686Y-61524738D02*
X173498543Y-61572357D01*
X173498543Y-61572357D02*
X173593781Y-61667595D01*
X173593781Y-61667595D02*
X173641400Y-61762833D01*
X173641400Y-61762833D02*
X173689019Y-61953309D01*
X173689019Y-61953309D02*
X173689019Y-62096166D01*
X173689019Y-62096166D02*
X173641400Y-62286642D01*
X173641400Y-62286642D02*
X173593781Y-62381880D01*
X173593781Y-62381880D02*
X173498543Y-62477119D01*
X173498543Y-62477119D02*
X173355686Y-62524738D01*
X173355686Y-62524738D02*
X173117591Y-62524738D01*
X174641400Y-62524738D02*
X174069972Y-62524738D01*
X174355686Y-62524738D02*
X174355686Y-61524738D01*
X174355686Y-61524738D02*
X174260448Y-61667595D01*
X174260448Y-61667595D02*
X174165210Y-61762833D01*
X174165210Y-61762833D02*
X174069972Y-61810452D01*
X174891905Y-65399104D02*
X175368095Y-65399104D01*
X174796667Y-65684819D02*
X175130000Y-64684819D01*
X175130000Y-64684819D02*
X175463333Y-65684819D01*
X173061905Y-66764819D02*
X173061905Y-65764819D01*
X173061905Y-65764819D02*
X173300000Y-65764819D01*
X173300000Y-65764819D02*
X173442857Y-65812438D01*
X173442857Y-65812438D02*
X173538095Y-65907676D01*
X173538095Y-65907676D02*
X173585714Y-66002914D01*
X173585714Y-66002914D02*
X173633333Y-66193390D01*
X173633333Y-66193390D02*
X173633333Y-66336247D01*
X173633333Y-66336247D02*
X173585714Y-66526723D01*
X173585714Y-66526723D02*
X173538095Y-66621961D01*
X173538095Y-66621961D02*
X173442857Y-66717200D01*
X173442857Y-66717200D02*
X173300000Y-66764819D01*
X173300000Y-66764819D02*
X173061905Y-66764819D01*
X174014286Y-65860057D02*
X174061905Y-65812438D01*
X174061905Y-65812438D02*
X174157143Y-65764819D01*
X174157143Y-65764819D02*
X174395238Y-65764819D01*
X174395238Y-65764819D02*
X174490476Y-65812438D01*
X174490476Y-65812438D02*
X174538095Y-65860057D01*
X174538095Y-65860057D02*
X174585714Y-65955295D01*
X174585714Y-65955295D02*
X174585714Y-66050533D01*
X174585714Y-66050533D02*
X174538095Y-66193390D01*
X174538095Y-66193390D02*
X173966667Y-66764819D01*
X173966667Y-66764819D02*
X174585714Y-66764819D01*
X174881905Y-69129104D02*
X175358095Y-69129104D01*
X174786667Y-69414819D02*
X175120000Y-68414819D01*
X175120000Y-68414819D02*
X175453333Y-69414819D01*
X173101905Y-74324819D02*
X173101905Y-73324819D01*
X173101905Y-73324819D02*
X173340000Y-73324819D01*
X173340000Y-73324819D02*
X173482857Y-73372438D01*
X173482857Y-73372438D02*
X173578095Y-73467676D01*
X173578095Y-73467676D02*
X173625714Y-73562914D01*
X173625714Y-73562914D02*
X173673333Y-73753390D01*
X173673333Y-73753390D02*
X173673333Y-73896247D01*
X173673333Y-73896247D02*
X173625714Y-74086723D01*
X173625714Y-74086723D02*
X173578095Y-74181961D01*
X173578095Y-74181961D02*
X173482857Y-74277200D01*
X173482857Y-74277200D02*
X173340000Y-74324819D01*
X173340000Y-74324819D02*
X173101905Y-74324819D01*
X174530476Y-73658152D02*
X174530476Y-74324819D01*
X174292381Y-73277200D02*
X174054286Y-73991485D01*
X174054286Y-73991485D02*
X174673333Y-73991485D01*
X174931905Y-76569104D02*
X175408095Y-76569104D01*
X174836667Y-76854819D02*
X175170000Y-75854819D01*
X175170000Y-75854819D02*
X175503333Y-76854819D01*
X166271905Y-77034819D02*
X166271905Y-76034819D01*
X166843333Y-77034819D02*
X166414762Y-76463390D01*
X166843333Y-76034819D02*
X166271905Y-76606247D01*
X167414762Y-76463390D02*
X167319524Y-76415771D01*
X167319524Y-76415771D02*
X167271905Y-76368152D01*
X167271905Y-76368152D02*
X167224286Y-76272914D01*
X167224286Y-76272914D02*
X167224286Y-76225295D01*
X167224286Y-76225295D02*
X167271905Y-76130057D01*
X167271905Y-76130057D02*
X167319524Y-76082438D01*
X167319524Y-76082438D02*
X167414762Y-76034819D01*
X167414762Y-76034819D02*
X167605238Y-76034819D01*
X167605238Y-76034819D02*
X167700476Y-76082438D01*
X167700476Y-76082438D02*
X167748095Y-76130057D01*
X167748095Y-76130057D02*
X167795714Y-76225295D01*
X167795714Y-76225295D02*
X167795714Y-76272914D01*
X167795714Y-76272914D02*
X167748095Y-76368152D01*
X167748095Y-76368152D02*
X167700476Y-76415771D01*
X167700476Y-76415771D02*
X167605238Y-76463390D01*
X167605238Y-76463390D02*
X167414762Y-76463390D01*
X167414762Y-76463390D02*
X167319524Y-76511009D01*
X167319524Y-76511009D02*
X167271905Y-76558628D01*
X167271905Y-76558628D02*
X167224286Y-76653866D01*
X167224286Y-76653866D02*
X167224286Y-76844342D01*
X167224286Y-76844342D02*
X167271905Y-76939580D01*
X167271905Y-76939580D02*
X167319524Y-76987200D01*
X167319524Y-76987200D02*
X167414762Y-77034819D01*
X167414762Y-77034819D02*
X167605238Y-77034819D01*
X167605238Y-77034819D02*
X167700476Y-76987200D01*
X167700476Y-76987200D02*
X167748095Y-76939580D01*
X167748095Y-76939580D02*
X167795714Y-76844342D01*
X167795714Y-76844342D02*
X167795714Y-76653866D01*
X167795714Y-76653866D02*
X167748095Y-76558628D01*
X167748095Y-76558628D02*
X167700476Y-76511009D01*
X167700476Y-76511009D02*
X167605238Y-76463390D01*
X143181905Y-57240819D02*
X143181905Y-56240819D01*
X143753333Y-57240819D02*
X143324762Y-56669390D01*
X143753333Y-56240819D02*
X143181905Y-56812247D01*
X144610476Y-56574152D02*
X144610476Y-57240819D01*
X144372381Y-56193200D02*
X144134286Y-56907485D01*
X144134286Y-56907485D02*
X144753333Y-56907485D01*
X154086666Y-108054819D02*
X154086666Y-108769104D01*
X154086666Y-108769104D02*
X154039047Y-108911961D01*
X154039047Y-108911961D02*
X153943809Y-109007200D01*
X153943809Y-109007200D02*
X153800952Y-109054819D01*
X153800952Y-109054819D02*
X153705714Y-109054819D01*
X155086666Y-109054819D02*
X154515238Y-109054819D01*
X154800952Y-109054819D02*
X154800952Y-108054819D01*
X154800952Y-108054819D02*
X154705714Y-108197676D01*
X154705714Y-108197676D02*
X154610476Y-108292914D01*
X154610476Y-108292914D02*
X154515238Y-108340533D01*
X140761905Y-75054819D02*
X140761905Y-74054819D01*
X141333333Y-75054819D02*
X140904762Y-74483390D01*
X141333333Y-74054819D02*
X140761905Y-74626247D01*
X142238095Y-74054819D02*
X141761905Y-74054819D01*
X141761905Y-74054819D02*
X141714286Y-74531009D01*
X141714286Y-74531009D02*
X141761905Y-74483390D01*
X141761905Y-74483390D02*
X141857143Y-74435771D01*
X141857143Y-74435771D02*
X142095238Y-74435771D01*
X142095238Y-74435771D02*
X142190476Y-74483390D01*
X142190476Y-74483390D02*
X142238095Y-74531009D01*
X142238095Y-74531009D02*
X142285714Y-74626247D01*
X142285714Y-74626247D02*
X142285714Y-74864342D01*
X142285714Y-74864342D02*
X142238095Y-74959580D01*
X142238095Y-74959580D02*
X142190476Y-75007200D01*
X142190476Y-75007200D02*
X142095238Y-75054819D01*
X142095238Y-75054819D02*
X141857143Y-75054819D01*
X141857143Y-75054819D02*
X141761905Y-75007200D01*
X141761905Y-75007200D02*
X141714286Y-74959580D01*
X128091905Y-57240819D02*
X128091905Y-56240819D01*
X128663333Y-57240819D02*
X128234762Y-56669390D01*
X128663333Y-56240819D02*
X128091905Y-56812247D01*
X129615714Y-57240819D02*
X129044286Y-57240819D01*
X129330000Y-57240819D02*
X129330000Y-56240819D01*
X129330000Y-56240819D02*
X129234762Y-56383676D01*
X129234762Y-56383676D02*
X129139524Y-56478914D01*
X129139524Y-56478914D02*
X129044286Y-56526533D01*
X173151905Y-81874819D02*
X173151905Y-80874819D01*
X173151905Y-80874819D02*
X173390000Y-80874819D01*
X173390000Y-80874819D02*
X173532857Y-80922438D01*
X173532857Y-80922438D02*
X173628095Y-81017676D01*
X173628095Y-81017676D02*
X173675714Y-81112914D01*
X173675714Y-81112914D02*
X173723333Y-81303390D01*
X173723333Y-81303390D02*
X173723333Y-81446247D01*
X173723333Y-81446247D02*
X173675714Y-81636723D01*
X173675714Y-81636723D02*
X173628095Y-81731961D01*
X173628095Y-81731961D02*
X173532857Y-81827200D01*
X173532857Y-81827200D02*
X173390000Y-81874819D01*
X173390000Y-81874819D02*
X173151905Y-81874819D01*
X174580476Y-80874819D02*
X174390000Y-80874819D01*
X174390000Y-80874819D02*
X174294762Y-80922438D01*
X174294762Y-80922438D02*
X174247143Y-80970057D01*
X174247143Y-80970057D02*
X174151905Y-81112914D01*
X174151905Y-81112914D02*
X174104286Y-81303390D01*
X174104286Y-81303390D02*
X174104286Y-81684342D01*
X174104286Y-81684342D02*
X174151905Y-81779580D01*
X174151905Y-81779580D02*
X174199524Y-81827200D01*
X174199524Y-81827200D02*
X174294762Y-81874819D01*
X174294762Y-81874819D02*
X174485238Y-81874819D01*
X174485238Y-81874819D02*
X174580476Y-81827200D01*
X174580476Y-81827200D02*
X174628095Y-81779580D01*
X174628095Y-81779580D02*
X174675714Y-81684342D01*
X174675714Y-81684342D02*
X174675714Y-81446247D01*
X174675714Y-81446247D02*
X174628095Y-81351009D01*
X174628095Y-81351009D02*
X174580476Y-81303390D01*
X174580476Y-81303390D02*
X174485238Y-81255771D01*
X174485238Y-81255771D02*
X174294762Y-81255771D01*
X174294762Y-81255771D02*
X174199524Y-81303390D01*
X174199524Y-81303390D02*
X174151905Y-81351009D01*
X174151905Y-81351009D02*
X174104286Y-81446247D01*
X174861905Y-84239104D02*
X175338095Y-84239104D01*
X174766667Y-84524819D02*
X175100000Y-83524819D01*
X175100000Y-83524819D02*
X175433333Y-84524819D01*
D12*
%TO.C,K6*%
X136935000Y-87855000D02*
X150905000Y-87855000D01*
X136935000Y-101825000D02*
X136935000Y-87855000D01*
X150905000Y-87855000D02*
X150905000Y-101825000D01*
X150905000Y-101825000D02*
X136935000Y-101825000D01*
%TO.C,K2*%
X121845000Y-72765000D02*
X135815000Y-72765000D01*
X121845000Y-86735000D02*
X121845000Y-72765000D01*
X135815000Y-72765000D02*
X135815000Y-86735000D01*
X135815000Y-86735000D02*
X121845000Y-86735000D01*
%TO.C,D8*%
X172642057Y-90805484D02*
X175295686Y-90805484D01*
X172642057Y-90805484D02*
G75*
G02*
X169989315Y-90805484I-1326371J0D01*
G01*
X169989315Y-90805484D02*
G75*
G02*
X172642057Y-90805484I1326371J0D01*
G01*
%TO.C,K3*%
X121845000Y-87855000D02*
X135815000Y-87855000D01*
X121845000Y-101825000D02*
X121845000Y-87855000D01*
X135815000Y-87855000D02*
X135815000Y-101825000D01*
X135815000Y-101825000D02*
X121845000Y-101825000D01*
%TO.C,D5*%
X172642057Y-79487258D02*
X175295686Y-79487258D01*
X172642057Y-79487258D02*
G75*
G02*
X169989315Y-79487258I-1326371J0D01*
G01*
X169989315Y-79487258D02*
G75*
G02*
X172642057Y-79487258I1326371J0D01*
G01*
%TO.C,D3*%
X172642057Y-71941774D02*
X175295686Y-71941774D01*
X172642057Y-71941774D02*
G75*
G02*
X169989315Y-71941774I-1326371J0D01*
G01*
X169989315Y-71941774D02*
G75*
G02*
X172642057Y-71941774I1326371J0D01*
G01*
%TO.C,K7*%
X152025000Y-57675000D02*
X165995000Y-57675000D01*
X152025000Y-71645000D02*
X152025000Y-57675000D01*
X165995000Y-57675000D02*
X165995000Y-71645000D01*
X165995000Y-71645000D02*
X152025000Y-71645000D01*
%TO.C,D7*%
X172642057Y-87032742D02*
X175295686Y-87032742D01*
X172642057Y-87032742D02*
G75*
G02*
X169989315Y-87032742I-1326371J0D01*
G01*
X169989315Y-87032742D02*
G75*
G02*
X172642057Y-87032742I1326371J0D01*
G01*
%TO.C,D9*%
X172642057Y-94578226D02*
X175295686Y-94578226D01*
X172642057Y-94578226D02*
G75*
G02*
X169989315Y-94578226I-1326371J0D01*
G01*
X169989315Y-94578226D02*
G75*
G02*
X172642057Y-94578226I1326371J0D01*
G01*
%TO.C,K9*%
X152025000Y-87855000D02*
X165995000Y-87855000D01*
X152025000Y-101825000D02*
X152025000Y-87855000D01*
X165995000Y-87855000D02*
X165995000Y-101825000D01*
X165995000Y-101825000D02*
X152025000Y-101825000D01*
%TO.C,D1*%
X172642057Y-64396290D02*
X175295686Y-64396290D01*
X172642057Y-64396290D02*
G75*
G02*
X169989315Y-64396290I-1326371J0D01*
G01*
X169989315Y-64396290D02*
G75*
G02*
X172642057Y-64396290I1326371J0D01*
G01*
%TO.C,D2*%
X172642057Y-68169032D02*
X175295686Y-68169032D01*
X172642057Y-68169032D02*
G75*
G02*
X169989315Y-68169032I-1326371J0D01*
G01*
X169989315Y-68169032D02*
G75*
G02*
X172642057Y-68169032I1326371J0D01*
G01*
%TO.C,D4*%
X172642057Y-75714516D02*
X175295686Y-75714516D01*
X172642057Y-75714516D02*
G75*
G02*
X169989315Y-75714516I-1326371J0D01*
G01*
X169989315Y-75714516D02*
G75*
G02*
X172642057Y-75714516I1326371J0D01*
G01*
%TO.C,K8*%
X152025000Y-72765000D02*
X165995000Y-72765000D01*
X152025000Y-86735000D02*
X152025000Y-72765000D01*
X165995000Y-72765000D02*
X165995000Y-86735000D01*
X165995000Y-86735000D02*
X152025000Y-86735000D01*
%TO.C,K4*%
X136935000Y-57675000D02*
X150905000Y-57675000D01*
X136935000Y-71645000D02*
X136935000Y-57675000D01*
X150905000Y-57675000D02*
X150905000Y-71645000D01*
X150905000Y-71645000D02*
X136935000Y-71645000D01*
%TO.C,J1*%
X119800000Y-106030000D02*
X152940000Y-106030000D01*
X119800000Y-108630000D02*
X119800000Y-106030000D01*
X119800000Y-111230000D02*
X119800000Y-109900000D01*
X121130000Y-111230000D02*
X119800000Y-111230000D01*
X122400000Y-108630000D02*
X119800000Y-108630000D01*
X122400000Y-111230000D02*
X122400000Y-108630000D01*
X122400000Y-111230000D02*
X152940000Y-111230000D01*
X152940000Y-111230000D02*
X152940000Y-106030000D01*
%TO.C,K5*%
X136935000Y-72765000D02*
X150905000Y-72765000D01*
X136935000Y-86735000D02*
X136935000Y-72765000D01*
X150905000Y-72765000D02*
X150905000Y-86735000D01*
X150905000Y-86735000D02*
X136935000Y-86735000D01*
%TO.C,K1*%
X121845000Y-57675000D02*
X135815000Y-57675000D01*
X121845000Y-71645000D02*
X121845000Y-57675000D01*
X135815000Y-57675000D02*
X135815000Y-71645000D01*
X135815000Y-71645000D02*
X121845000Y-71645000D01*
%TO.C,D6*%
X172642057Y-83260000D02*
X175295686Y-83260000D01*
X172642057Y-83260000D02*
G75*
G02*
X169989315Y-83260000I-1326371J0D01*
G01*
X169989315Y-83260000D02*
G75*
G02*
X172642057Y-83260000I1326371J0D01*
G01*
%TD*%
M02*
