%TF.GenerationSoftware,KiCad,Pcbnew,8.0.5*%
%TF.CreationDate,2025-07-15T13:21:22-04:00*%
%TF.ProjectId,macropad,6d616372-6f70-4616-942e-6b696361645f,rev?*%
%TF.SameCoordinates,Original*%
%TF.FileFunction,Copper,L2,Bot*%
%TF.FilePolarity,Positive*%
%FSLAX46Y46*%
G04 Gerber Fmt 4.6, Leading zero omitted, Abs format (unit mm)*
G04 Created by KiCad (PCBNEW 8.0.5) date 2025-07-15 13:21:22*
%MOMM*%
%LPD*%
G01*
G04 APERTURE LIST*
%TA.AperFunction,ComponentPad*%
%ADD10C,2.200000*%
%TD*%
%TA.AperFunction,ComponentPad*%
%ADD11R,1.600000X1.600000*%
%TD*%
%TA.AperFunction,ComponentPad*%
%ADD12O,1.600000X1.600000*%
%TD*%
%TA.AperFunction,ComponentPad*%
%ADD13R,1.700000X1.700000*%
%TD*%
%TA.AperFunction,ComponentPad*%
%ADD14O,1.700000X1.700000*%
%TD*%
%TA.AperFunction,ViaPad*%
%ADD15C,0.600000*%
%TD*%
%TA.AperFunction,Conductor*%
%ADD16C,0.200000*%
%TD*%
G04 APERTURE END LIST*
D10*
%TO.P,K6,1*%
%TO.N,/col 2*%
X146460000Y-89760000D03*
%TO.P,K6,2*%
%TO.N,Net-(D6-A)*%
X140110000Y-92300000D03*
%TD*%
%TO.P,K2,1*%
%TO.N,/col 1*%
X131370000Y-74670000D03*
%TO.P,K2,2*%
%TO.N,Net-(D2-A)*%
X125020000Y-77210000D03*
%TD*%
D11*
%TO.P,D8,1,K*%
%TO.N,/row 2*%
X171315686Y-90805484D03*
D12*
%TO.P,D8,2,A*%
%TO.N,Net-(D8-A)*%
X176395686Y-90805484D03*
%TD*%
D10*
%TO.P,K3,1*%
%TO.N,/col 2*%
X131370000Y-89760000D03*
%TO.P,K3,2*%
%TO.N,Net-(D3-A)*%
X125020000Y-92300000D03*
%TD*%
D11*
%TO.P,D5,1,K*%
%TO.N,/row 1*%
X171315686Y-79487258D03*
D12*
%TO.P,D5,2,A*%
%TO.N,Net-(D5-A)*%
X176395686Y-79487258D03*
%TD*%
D11*
%TO.P,D3,1,K*%
%TO.N,/row0*%
X171315686Y-71941774D03*
D12*
%TO.P,D3,2,A*%
%TO.N,Net-(D3-A)*%
X176395686Y-71941774D03*
%TD*%
D10*
%TO.P,K7,1*%
%TO.N,/col 0*%
X161550000Y-59580000D03*
%TO.P,K7,2*%
%TO.N,Net-(D7-A)*%
X155200000Y-62120000D03*
%TD*%
D11*
%TO.P,D7,1,K*%
%TO.N,/row 2*%
X171315686Y-87032742D03*
D12*
%TO.P,D7,2,A*%
%TO.N,Net-(D7-A)*%
X176395686Y-87032742D03*
%TD*%
D11*
%TO.P,D9,1,K*%
%TO.N,/row 2*%
X171315686Y-94578226D03*
D12*
%TO.P,D9,2,A*%
%TO.N,Net-(D9-A)*%
X176395686Y-94578226D03*
%TD*%
D10*
%TO.P,K9,1*%
%TO.N,/col 2*%
X161550000Y-89760000D03*
%TO.P,K9,2*%
%TO.N,Net-(D9-A)*%
X155200000Y-92300000D03*
%TD*%
D11*
%TO.P,D1,1,K*%
%TO.N,/row0*%
X171315686Y-64396290D03*
D12*
%TO.P,D1,2,A*%
%TO.N,Net-(D1-A)*%
X176395686Y-64396290D03*
%TD*%
D11*
%TO.P,D2,1,K*%
%TO.N,/row0*%
X171315686Y-68169032D03*
D12*
%TO.P,D2,2,A*%
%TO.N,Net-(D2-A)*%
X176395686Y-68169032D03*
%TD*%
D11*
%TO.P,D4,1,K*%
%TO.N,/row 1*%
X171315686Y-75714516D03*
D12*
%TO.P,D4,2,A*%
%TO.N,Net-(D4-A)*%
X176395686Y-75714516D03*
%TD*%
D10*
%TO.P,K8,1*%
%TO.N,/col 1*%
X161550000Y-74670000D03*
%TO.P,K8,2*%
%TO.N,Net-(D8-A)*%
X155200000Y-77210000D03*
%TD*%
%TO.P,K4,1*%
%TO.N,/col 0*%
X146460000Y-59580000D03*
%TO.P,K4,2*%
%TO.N,Net-(D4-A)*%
X140110000Y-62120000D03*
%TD*%
D13*
%TO.P,J1,1,Pin_1*%
%TO.N,/row0*%
X121130000Y-109900000D03*
D14*
%TO.P,J1,2,Pin_2*%
%TO.N,GND*%
X121130000Y-107360000D03*
%TO.P,J1,3,Pin_3*%
%TO.N,/row 1*%
X123670000Y-109900000D03*
%TO.P,J1,4,Pin_4*%
%TO.N,unconnected-(J1-Pin_4-Pad4)*%
X123670000Y-107360000D03*
%TO.P,J1,5,Pin_5*%
%TO.N,/row 2*%
X126210000Y-109900000D03*
%TO.P,J1,6,Pin_6*%
%TO.N,unconnected-(J1-Pin_6-Pad6)*%
X126210000Y-107360000D03*
%TO.P,J1,7,Pin_7*%
%TO.N,/col 0*%
X128750000Y-109900000D03*
%TO.P,J1,8,Pin_8*%
%TO.N,unconnected-(J1-Pin_8-Pad8)*%
X128750000Y-107360000D03*
%TO.P,J1,9,Pin_9*%
%TO.N,/col 1*%
X131290000Y-109900000D03*
%TO.P,J1,10,Pin_10*%
%TO.N,Net-(J1-Pin_10)*%
X131290000Y-107360000D03*
%TO.P,J1,11,Pin_11*%
%TO.N,/col 2*%
X133830000Y-109900000D03*
%TO.P,J1,12,Pin_12*%
%TO.N,unconnected-(J1-Pin_12-Pad12)*%
X133830000Y-107360000D03*
%TO.P,J1,13,Pin_13*%
%TO.N,unconnected-(J1-Pin_13-Pad13)*%
X136370000Y-109900000D03*
%TO.P,J1,14*%
%TO.N,N/C*%
X136370000Y-107360000D03*
%TO.P,J1,15*%
X138910000Y-109900000D03*
%TO.P,J1,16*%
X138910000Y-107360000D03*
%TO.P,J1,17*%
X141450000Y-109900000D03*
%TO.P,J1,18*%
X141450000Y-107360000D03*
%TO.P,J1,19*%
X143990000Y-109900000D03*
%TO.P,J1,20*%
X143990000Y-107360000D03*
%TO.P,J1,21*%
X146530000Y-109900000D03*
%TO.P,J1,22*%
X146530000Y-107360000D03*
%TO.P,J1,23*%
X149070000Y-109900000D03*
%TO.P,J1,24*%
X149070000Y-107360000D03*
%TO.P,J1,25*%
X151610000Y-109900000D03*
%TO.P,J1,26*%
X151610000Y-107360000D03*
%TD*%
D10*
%TO.P,K5,1*%
%TO.N,/col 1*%
X146460000Y-74670000D03*
%TO.P,K5,2*%
%TO.N,Net-(D5-A)*%
X140110000Y-77210000D03*
%TD*%
%TO.P,K1,1*%
%TO.N,/col 0*%
X131370000Y-59580000D03*
%TO.P,K1,2*%
%TO.N,Net-(D1-A)*%
X125020000Y-62120000D03*
%TD*%
D11*
%TO.P,D6,1,K*%
%TO.N,/row 1*%
X171315686Y-83260000D03*
D12*
%TO.P,D6,2,A*%
%TO.N,Net-(D6-A)*%
X176395686Y-83260000D03*
%TD*%
D15*
%TO.N,/row0*%
X169120000Y-71380000D03*
X119590000Y-104300000D03*
%TO.N,Net-(D3-A)*%
X126360000Y-90900000D03*
X175480000Y-73340000D03*
%TO.N,/row 1*%
X123680000Y-111220000D03*
X173360000Y-76360000D03*
%TO.N,Net-(D8-A)*%
X175650000Y-89650000D03*
X157400000Y-76960000D03*
%TD*%
D16*
%TO.N,/row0*%
X168270000Y-72230000D02*
X169120000Y-71380000D01*
X119590000Y-80660101D02*
X128020101Y-72230000D01*
X128020101Y-72230000D02*
X168270000Y-72230000D01*
X119590000Y-104300000D02*
X119590000Y-80660101D01*
%TO.N,Net-(D3-A)*%
X175576805Y-73340000D02*
X177840000Y-75603195D01*
X177840000Y-95170000D02*
X175400000Y-97610000D01*
X128390000Y-97610000D02*
X128276598Y-97610000D01*
X128276598Y-97610000D02*
X126360000Y-95693402D01*
X177840000Y-75603195D02*
X177840000Y-95170000D01*
X126360000Y-95693402D02*
X126360000Y-90900000D01*
X175400000Y-97610000D02*
X128390000Y-97610000D01*
X175480000Y-73340000D02*
X175576805Y-73340000D01*
X128390000Y-97610000D02*
X128270000Y-97610000D01*
%TO.N,/row 1*%
X178400000Y-95175686D02*
X178400000Y-72390453D01*
X173530000Y-73251825D02*
X173530000Y-76190000D01*
X178400000Y-72390453D02*
X176839547Y-70830000D01*
X175951825Y-70830000D02*
X173530000Y-73251825D01*
X123680000Y-111220000D02*
X162355686Y-111220000D01*
X173530000Y-76190000D02*
X173360000Y-76360000D01*
X162355686Y-111220000D02*
X178400000Y-95175686D01*
X176839547Y-70830000D02*
X175951825Y-70830000D01*
%TO.N,Net-(D8-A)*%
X155660000Y-79723402D02*
X155660000Y-78700000D01*
X175650000Y-89650000D02*
X165586598Y-89650000D01*
X155660000Y-78700000D02*
X157400000Y-76960000D01*
X165586598Y-89650000D02*
X155660000Y-79723402D01*
%TD*%
M02*
