M48
; DRILL file {KiCad 8.0.5} date 2025-07-15T13:21:51-0400
; FORMAT={-:-/ absolute / inch / decimal}
; #@! TF.CreationDate,2025-07-15T13:21:51-04:00
; #@! TF.GenerationSoftware,Kicad,Pcbnew,8.0.5
; #@! TF.FileFunction,Plated,1,2,PTH
FMAT,2
INCH
; #@! TA.AperFunction,Plated,PTH,ViaDrill
T1C0.0118
; #@! TA.AperFunction,Plated,PTH,ComponentDrill
T2C0.0315
; #@! TA.AperFunction,Plated,PTH,ComponentDrill
T3C0.0394
; #@! TA.AperFunction,Plated,PTH,ComponentDrill
T4C0.0591
%
G90
G05
T1
X4.7083Y-4.1063
X4.8693Y-4.3787
X4.9748Y-3.5787
X6.1969Y-3.0299
X6.6583Y-2.8102
X6.8252Y-3.0063
X6.9087Y-2.8874
X6.9154Y-3.5295
T2
X6.7447Y-2.5353
X6.7447Y-2.6838
X6.7447Y-2.8324
X6.7447Y-2.9809
X6.7447Y-3.1294
X6.7447Y-3.278
X6.7447Y-3.4265
X6.7447Y-3.575
X6.7447Y-3.7236
X6.9447Y-2.5353
X6.9447Y-2.6838
X6.9447Y-2.8324
X6.9447Y-2.9809
X6.9447Y-3.1294
X6.9447Y-3.278
X6.9447Y-3.4265
X6.9447Y-3.575
X6.9447Y-3.7236
T3
X4.7689Y-4.2268
X4.7689Y-4.3268
X4.8689Y-4.2268
X4.8689Y-4.3268
X4.9689Y-4.2268
X4.9689Y-4.3268
X5.0689Y-4.2268
X5.0689Y-4.3268
X5.1689Y-4.2268
X5.1689Y-4.3268
X5.2689Y-4.2268
X5.2689Y-4.3268
X5.3689Y-4.2268
X5.3689Y-4.3268
X5.4689Y-4.2268
X5.4689Y-4.3268
X5.5689Y-4.2268
X5.5689Y-4.3268
X5.6689Y-4.2268
X5.6689Y-4.3268
X5.7689Y-4.2268
X5.7689Y-4.3268
X5.8689Y-4.2268
X5.8689Y-4.3268
X5.9689Y-4.2268
X5.9689Y-4.3268
T4
X4.922Y-2.4457
X4.922Y-3.0398
X4.922Y-3.6339
X5.172Y-2.3457
X5.172Y-2.9398
X5.172Y-3.5339
X5.5161Y-2.4457
X5.5161Y-3.0398
X5.5161Y-3.6339
X5.7661Y-2.3457
X5.7661Y-2.9398
X5.7661Y-3.5339
X6.1102Y-2.4457
X6.1102Y-3.0398
X6.1102Y-3.6339
X6.3602Y-2.3457
X6.3602Y-2.9398
X6.3602Y-3.5339
M30
