%TF.GenerationSoftware,KiCad,Pcbnew,8.0.5*%
%TF.CreationDate,2025-07-15T13:21:23-04:00*%
%TF.ProjectId,macropad,6d616372-6f70-4616-942e-6b696361645f,rev?*%
%TF.SameCoordinates,Original*%
%TF.FileFunction,Soldermask,Top*%
%TF.FilePolarity,Negative*%
%FSLAX46Y46*%
G04 Gerber Fmt 4.6, Leading zero omitted, Abs format (unit mm)*
G04 Created by KiCad (PCBNEW 8.0.5) date 2025-07-15 13:21:23*
%MOMM*%
%LPD*%
G01*
G04 APERTURE LIST*
%ADD10C,1.700000*%
%ADD11C,4.000000*%
%ADD12C,2.200000*%
%ADD13R,1.600000X1.600000*%
%ADD14O,1.600000X1.600000*%
%ADD15R,1.700000X1.700000*%
%ADD16O,1.700000X1.700000*%
G04 APERTURE END LIST*
D10*
%TO.C,K6*%
X138840000Y-94840000D03*
D11*
X143920000Y-94840000D03*
D10*
X149000000Y-94840000D03*
D12*
X146460000Y-89760000D03*
X140110000Y-92300000D03*
%TD*%
D10*
%TO.C,K2*%
X123750000Y-79750000D03*
D11*
X128830000Y-79750000D03*
D10*
X133910000Y-79750000D03*
D12*
X131370000Y-74670000D03*
X125020000Y-77210000D03*
%TD*%
D13*
%TO.C,D8*%
X171315686Y-90805484D03*
D14*
X176395686Y-90805484D03*
%TD*%
D10*
%TO.C,K3*%
X123750000Y-94840000D03*
D11*
X128830000Y-94840000D03*
D10*
X133910000Y-94840000D03*
D12*
X131370000Y-89760000D03*
X125020000Y-92300000D03*
%TD*%
D13*
%TO.C,D5*%
X171315686Y-79487258D03*
D14*
X176395686Y-79487258D03*
%TD*%
D13*
%TO.C,D3*%
X171315686Y-71941774D03*
D14*
X176395686Y-71941774D03*
%TD*%
D10*
%TO.C,K7*%
X153930000Y-64660000D03*
D11*
X159010000Y-64660000D03*
D10*
X164090000Y-64660000D03*
D12*
X161550000Y-59580000D03*
X155200000Y-62120000D03*
%TD*%
D13*
%TO.C,D7*%
X171315686Y-87032742D03*
D14*
X176395686Y-87032742D03*
%TD*%
D13*
%TO.C,D9*%
X171315686Y-94578226D03*
D14*
X176395686Y-94578226D03*
%TD*%
D10*
%TO.C,K9*%
X153930000Y-94840000D03*
D11*
X159010000Y-94840000D03*
D10*
X164090000Y-94840000D03*
D12*
X161550000Y-89760000D03*
X155200000Y-92300000D03*
%TD*%
D13*
%TO.C,D1*%
X171315686Y-64396290D03*
D14*
X176395686Y-64396290D03*
%TD*%
D13*
%TO.C,D2*%
X171315686Y-68169032D03*
D14*
X176395686Y-68169032D03*
%TD*%
D13*
%TO.C,D4*%
X171315686Y-75714516D03*
D14*
X176395686Y-75714516D03*
%TD*%
D10*
%TO.C,K8*%
X153930000Y-79750000D03*
D11*
X159010000Y-79750000D03*
D10*
X164090000Y-79750000D03*
D12*
X161550000Y-74670000D03*
X155200000Y-77210000D03*
%TD*%
D10*
%TO.C,K4*%
X138840000Y-64660000D03*
D11*
X143920000Y-64660000D03*
D10*
X149000000Y-64660000D03*
D12*
X146460000Y-59580000D03*
X140110000Y-62120000D03*
%TD*%
D15*
%TO.C,J1*%
X121130000Y-109900000D03*
D16*
X121130000Y-107360000D03*
X123670000Y-109900000D03*
X123670000Y-107360000D03*
X126210000Y-109900000D03*
X126210000Y-107360000D03*
X128750000Y-109900000D03*
X128750000Y-107360000D03*
X131290000Y-109900000D03*
X131290000Y-107360000D03*
X133830000Y-109900000D03*
X133830000Y-107360000D03*
X136370000Y-109900000D03*
X136370000Y-107360000D03*
X138910000Y-109900000D03*
X138910000Y-107360000D03*
X141450000Y-109900000D03*
X141450000Y-107360000D03*
X143990000Y-109900000D03*
X143990000Y-107360000D03*
X146530000Y-109900000D03*
X146530000Y-107360000D03*
X149070000Y-109900000D03*
X149070000Y-107360000D03*
X151610000Y-109900000D03*
X151610000Y-107360000D03*
%TD*%
D10*
%TO.C,K5*%
X138840000Y-79750000D03*
D11*
X143920000Y-79750000D03*
D10*
X149000000Y-79750000D03*
D12*
X146460000Y-74670000D03*
X140110000Y-77210000D03*
%TD*%
D10*
%TO.C,K1*%
X123750000Y-64660000D03*
D11*
X128830000Y-64660000D03*
D10*
X133910000Y-64660000D03*
D12*
X131370000Y-59580000D03*
X125020000Y-62120000D03*
%TD*%
D13*
%TO.C,D6*%
X171315686Y-83260000D03*
D14*
X176395686Y-83260000D03*
%TD*%
M02*
